<?xml version="1.0" encoding="UTF-8" standalone="no"?>
<!-- Generated by graphviz version 2.40.1 (20161225.0304)
 -->

<!-- Title: %3 Pages: 1 -->

<svg
   viewBox="0.00 0.00 1000.00 1000.00"
   version="1.1"
   id="svg1534"
   sodipodi:docname="trpl04-04.svg"
   inkscape:version="1.1.2 (0a00cf5339, 2022-02-04)"
   xmlns:inkscape="http://www.inkscape.org/namespaces/inkscape"
   xmlns:sodipodi="http://sodipodi.sourceforge.net/DTD/sodipodi-0.dtd"
   xmlns="http://www.w3.org/2000/svg"
   xmlns:svg="http://www.w3.org/2000/svg">
  <defs
     id="defs1538" />
  <sodipodi:namedview
     id="namedview1536"
     pagecolor="#ffffff"
     bordercolor="#666666"
     borderopacity="1.0"
     inkscape:pageshadow="2"
     inkscape:pageopacity="0.0"
     inkscape:pagecheckerboard="0"
     showgrid="false"
     inkscape:zoom="0.56331885"
     inkscape:cx="11.538758"
     inkscape:cy="370.12786"
     inkscape:window-width="1920"
     inkscape:window-height="1016"
     inkscape:window-x="0"
     inkscape:window-y="27"
     inkscape:window-maximized="1"
     inkscape:current-layer="graph0" />
  <g
     id="graph0"
     class="graph"
     transform="scale(4.1667 4.1667) rotate(0) translate(4 238)">
    <title
       id="title1388">%3</title>
    <polygon
       fill="#ffffff"
       stroke="transparent"
       points="-4,4 -4,-238 233,-238 233,4 -4,4"
       id="polygon1390" />
    <!-- table0 -->
    <g
       id="node1"
       class="node">
      <title
         id="title1392">table0</title>
      <polygon
         fill="#c0c0c0"
         stroke="transparent"
         points="8,-130 8,-230 96,-230 96,-130 8,-130"
         id="polygon1394" />
      <polyline
         fill="none"
         stroke="#000000"
         points="8,-210 96,-210 "
         id="polyline1396" />
      <text
         text-anchor="start"
         x="45.775902"
         y="-215.8"
         font-family="Times, serif"
         font-size="14px"
         fill="#000000"
         id="text1398">v1</text>
      <polygon
         fill="none"
         stroke="#000000"
         points="8,-190 8,-210 60,-210 60,-190 8,-190"
         id="polygon1400" />
      <text
         text-anchor="start"
         x="18.8413"
         y="-195.8"
         font-family="Times,serif"
         font-size="14.00"
         fill="#000000"
         id="text1402">name</text>
      <polygon
         fill="none"
         stroke="#000000"
         points="60,-190 60,-210 96,-210 96,-190 60,-190"
         id="polygon1404" />
      <text
         text-anchor="start"
         x="62.8413"
         y="-195.8"
         font-family="Times,serif"
         font-size="14.00"
         fill="#000000"
         id="text1406">value</text>
      <polygon
         fill="none"
         stroke="#000000"
         points="8,-170 8,-190 60,-190 60,-170 8,-170"
         id="polygon1408" />
      <text
         text-anchor="start"
         x="26.2241"
         y="-175.8"
         font-family="Times,serif"
         font-size="14.00"
         fill="#000000"
         id="text1410">ptr</text>
      <polygon
         fill="none"
         stroke="#000000"
         points="60,-170 60,-190 96,-190 96,-170 60,-170"
         id="polygon1412" />
      <polygon
         fill="none"
         stroke="#000000"
         points="8,-150 8,-170 60,-170 60,-150 8,-150"
         id="polygon1414" />
      <text
         text-anchor="start"
         x="25.4482"
         y="-155.8"
         font-family="Times,serif"
         font-size="14.00"
         fill="#000000"
         id="text1416">len</text>
      <polygon
         fill="none"
         stroke="#000000"
         points="60,-150 60,-170 96,-170 96,-150 60,-150"
         id="polygon1418" />
      <text
         text-anchor="start"
         x="74.5"
         y="-155.8"
         font-family="Times, serif"
         font-size="14px"
         fill="#000000"
         id="text1420">3</text>
      <polygon
         fill="none"
         stroke="#000000"
         points="8,-130 8,-150 60,-150 60,-130 8,-130"
         id="polygon1422" />
      <text
         text-anchor="start"
         x="10.6826"
         y="-135.8"
         font-family="Times,serif"
         font-size="14.00"
         fill="#000000"
         id="text1424">capacity</text>
      <polygon
         fill="none"
         stroke="#000000"
         points="60,-130 60,-150 96,-150 96,-130 60,-130"
         id="polygon1426" />
      <text
         text-anchor="start"
         x="74.5"
         y="-135.8"
         font-family="Times, serif"
         font-size="14px"
         fill="#000000"
         id="text1428">4</text>
    </g>
    <!-- table1 -->
    <g
       id="node3"
       class="node">
      <title
         id="title1431">table1</title>
      <polygon
         fill="none"
         stroke="#000000"
         points="148.5,-127 148.5,-147 185.5,-147 185.5,-127 148.5,-127"
         id="polygon1433" />
      <text
         text-anchor="start"
         x="151.4482"
         y="-132.8"
         font-family="Times,serif"
         font-size="14.00"
         fill="#000000"
         id="text1435"><tspan
           style="font-style:italic"
           id="tspan59004">index</tspan></text>
      <polygon
         fill="none"
         stroke="#000000"
         points="185.5,-127 185.5,-147 221.5,-147 221.5,-127 185.5,-127"
         id="polygon1437" />
      <text
         text-anchor="start"
         x="188.3413"
         y="-132.8"
         font-family="Times,serif"
         font-size="14.00"
         fill="#000000"
         id="text1439">value</text>
      <polygon
         fill="none"
         stroke="#000000"
         points="148.5,-107 148.5,-127 185.5,-127 185.5,-107 148.5,-107"
         id="polygon1441" />
      <text
         text-anchor="start"
         x="163.5"
         y="-112.8"
         font-family="Times,serif"
         font-size="14.00"
         fill="#000000"
         id="text1443"><tspan
           style="font-style:italic"
           id="tspan59826">0</tspan></text>
      <polygon
         fill="none"
         stroke="#000000"
         points="185.5,-107 185.5,-127 221.5,-127 221.5,-107 185.5,-107"
         id="polygon1445" />
      <text
         text-anchor="start"
         x="198.08002"
         y="-112.8"
         font-family="Times, serif"
         font-size="14px"
         fill="#000000"
         id="text1447">22</text>
      <polygon
         fill="none"
         stroke="#000000"
         points="148.5,-87 148.5,-107 185.5,-107 185.5,-87 148.5,-87"
         id="polygon1449" />
      <text
         text-anchor="start"
         x="163.5"
         y="-92.8"
         font-family="Times,serif"
         font-size="14.00"
         fill="#000000"
         id="text1451"><tspan
           style="font-style:italic"
           id="tspan60702">1</tspan></text>
      <polygon
         fill="none"
         stroke="#000000"
         points="185.5,-87 185.5,-107 221.5,-107 221.5,-87 185.5,-87"
         id="polygon1453" />
      <text
         text-anchor="start"
         x="197.51312"
         y="-92.800003"
         font-family="Times, serif"
         font-size="14px"
         fill="#000000"
         id="text1455">44</text>
      <polygon
         fill="none"
         stroke="#000000"
         points="148.5,-67 148.5,-87 185.5,-87 185.5,-67 148.5,-67"
         id="polygon1457" />
      <text
         text-anchor="start"
         x="163.5"
         y="-72.8"
         font-family="Times,serif"
         font-size="14.00"
         fill="#000000"
         id="text1459"><tspan
           style="font-style:italic"
           id="tspan61744">2</tspan></text>
      <polygon
         fill="none"
         stroke="#000000"
         points="185.5,-67 185.5,-87 221.5,-87 221.5,-67 185.5,-67"
         id="polygon1461" />
      <text
         text-anchor="start"
         x="197.71524"
         y="-72.800003"
         font-family="Times, serif"
         font-size="14px"
         fill="#000000"
         id="text1463">66</text>
      <polygon
         fill="none"
         stroke="#000000"
         points="148.5,-47 148.5,-67 185.5,-67 185.5,-47 148.5,-47"
         id="polygon1465" />
      <text
         text-anchor="start"
         x="163.5"
         y="-52.8"
         font-family="Times,serif"
         font-size="14.00"
         fill="#000000"
         id="text1467"><tspan
           style="font-style:italic"
           id="tspan62360">3</tspan></text>
      <polygon
         fill="none"
         stroke="#000000"
         points="185.5,-47 185.5,-67 221.5,-67 221.5,-47 185.5,-47"
         id="polygon1469" />
      <text
         text-anchor="start"
         x="201.55521"
         y="-52.799999"
         font-family="Times, serif"
         font-size="14px"
         fill="#000000"
         id="text1471">?</text>
    </g>
    <!-- table0&#45;&gt;table1 -->
    <g
       id="edge1"
       class="edge">
      <title
         id="title1482">table0:c-&gt;table1:pointee</title>
      <path
         fill="none"
         stroke="#000000"
         d="M78,-180C78,-180 101.9982,-126.912 138.4405,-118.2023"
         stroke-dasharray="2,3"
         id="path1484" />
      <polygon
         fill="#000000"
         stroke="#000000"
         points="138.986,-121.6621 148.5,-117 138.1553,-114.7115 138.986,-121.6621"
         id="polygon1486" />
    </g>
    <!-- table3 -->
    <g
       id="node2"
       class="node">
      <title
         id="title1489">table3</title>
      <polyline
         fill="none"
         stroke="#000000"
         points="8,-84 96,-84 "
         id="polyline1491" />
      <text
         text-anchor="start"
         x="45.775902"
         y="-89.800003"
         font-family="Times, serif"
         font-size="14px"
         fill="#000000"
         id="text1493">v2</text>
      <polygon
         fill="none"
         stroke="#000000"
         points="8,-64 8,-84 60,-84 60,-64 8,-64"
         id="polygon1495" />
      <text
         text-anchor="start"
         x="18.8413"
         y="-69.8"
         font-family="Times,serif"
         font-size="14.00"
         fill="#000000"
         id="text1497">name</text>
      <polygon
         fill="none"
         stroke="#000000"
         points="60,-64 60,-84 96,-84 96,-64 60,-64"
         id="polygon1499" />
      <text
         text-anchor="start"
         x="62.8413"
         y="-69.8"
         font-family="Times,serif"
         font-size="14.00"
         fill="#000000"
         id="text1501">value</text>
      <polygon
         fill="none"
         stroke="#000000"
         points="8,-44 8,-64 60,-64 60,-44 8,-44"
         id="polygon1503" />
      <text
         text-anchor="start"
         x="26.2241"
         y="-49.8"
         font-family="Times,serif"
         font-size="14.00"
         fill="#000000"
         id="text1505">ptr</text>
      <polygon
         fill="none"
         stroke="#000000"
         points="60,-44 60,-64 96,-64 96,-44 60,-44"
         id="polygon1507" />
      <polygon
         fill="none"
         stroke="#000000"
         points="8,-24 8,-44 60,-44 60,-24 8,-24"
         id="polygon1509" />
      <text
         text-anchor="start"
         x="25.4482"
         y="-29.8"
         font-family="Times,serif"
         font-size="14.00"
         fill="#000000"
         id="text1511">len</text>
      <polygon
         fill="none"
         stroke="#000000"
         points="60,-24 60,-44 96,-44 96,-24 60,-24"
         id="polygon1513" />
      <text
         text-anchor="start"
         x="74.5"
         y="-29.799999"
         font-family="Times, serif"
         font-size="14px"
         fill="#000000"
         id="text1515">3</text>
      <polygon
         fill="none"
         stroke="#000000"
         points="8,-4 8,-24 60,-24 60,-4 8,-4"
         id="polygon1517" />
      <text
         text-anchor="start"
         x="10.6826"
         y="-9.8"
         font-family="Times,serif"
         font-size="14.00"
         fill="#000000"
         id="text1519">capacity</text>
      <polygon
         fill="none"
         stroke="#000000"
         points="60,-4 60,-24 96,-24 96,-4 60,-4"
         id="polygon1521" />
      <text
         text-anchor="start"
         x="74.5"
         y="-9.8000002"
         font-family="Times, serif"
         font-size="14px"
         fill="#000000"
         id="text1523">4</text>
    </g>
    <!-- table3&#45;&gt;table1 -->
    <g
       id="edge2"
       class="edge">
      <title
         id="title1526">table3:c-&gt;table1:pointee</title>
      <path
         fill="none"
         stroke="#000000"
         d="M78,-54C78,-54 101.9982,-107.088 138.4405,-115.7977"
         id="path1528" />
      <polygon
         fill="#000000"
         stroke="#000000"
         points="138.1553,-119.2885 148.5,-117 138.986,-112.3379 138.1553,-119.2885"
         id="polygon1530" />
    </g>
  </g>
</svg>
