<?xml version="1.0" encoding="UTF-8" standalone="no"?>
<!-- Generated by graphviz version 2.40.1 (20161225.0304)
 -->

<!-- Title: %3 Pages: 1 -->

<svg
   viewBox="0.00 0.00 1000.00 700.00"
   version="1.1"
   id="svg102"
   sodipodi:docname="trpl04-01.svg"
   inkscape:version="1.1.2 (0a00cf5339, 2022-02-04)"
   xmlns:inkscape="http://www.inkscape.org/namespaces/inkscape"
   xmlns:sodipodi="http://sodipodi.sourceforge.net/DTD/sodipodi-0.dtd"
   xmlns="http://www.w3.org/2000/svg"
   xmlns:svg="http://www.w3.org/2000/svg">
  <defs
     id="defs106" />
  <sodipodi:namedview
     id="namedview104"
     pagecolor="#ffffff"
     bordercolor="#666666"
     borderopacity="1.0"
     inkscape:pageshadow="2"
     inkscape:pageopacity="0.0"
     inkscape:pagecheckerboard="0"
     showgrid="false"
     inkscape:zoom="0.72275658"
     inkscape:cx="447.59191"
     inkscape:cy="609.47214"
     inkscape:window-width="1920"
     inkscape:window-height="1016"
     inkscape:window-x="0"
     inkscape:window-y="27"
     inkscape:window-maximized="1"
     inkscape:current-layer="node1" />
  <g
     id="graph0"
     class="graph"
     transform="scale(4.1667 4.1667) rotate(0) translate(4 152)">
    <title
       id="title2">%3</title>
    <polygon
       fill="#ffffff"
       stroke="transparent"
       points="-4,4 -4,-152 233,-152 233,4 -4,4"
       id="polygon4" />
    <!-- table0 -->
    <g
       id="node1"
       class="node">
      <title
         id="title6">table0</title>
      <polyline
         fill="none"
         stroke="#000000"
         points="8,-124 96,-124 "
         id="polyline8" />
      <text
         text-anchor="start"
         x="45.775902"
         y="-129.8"
         font-family="Times, serif"
         font-size="14px"
         fill="#000000"
         id="text10">v1</text>
      <polygon
         fill="none"
         stroke="#000000"
         points="8,-104 8,-124 60,-124 60,-104 8,-104"
         id="polygon12" />
      <text
         text-anchor="start"
         x="18.8413"
         y="-109.8"
         font-family="Times,serif"
         font-size="14.00"
         fill="#000000"
         id="text14">name</text>
      <polygon
         fill="none"
         stroke="#000000"
         points="60,-104 60,-124 96,-124 96,-104 60,-104"
         id="polygon16" />
      <text
         text-anchor="start"
         x="62.8413"
         y="-109.8"
         font-family="Times,serif"
         font-size="14.00"
         fill="#000000"
         id="text18">value</text>
      <polygon
         fill="none"
         stroke="#000000"
         points="8,-84 8,-104 60,-104 60,-84 8,-84"
         id="polygon20" />
      <text
         text-anchor="start"
         x="26.2241"
         y="-89.8"
         font-family="Times,serif"
         font-size="14.00"
         fill="#000000"
         id="text22">ptr</text>
      <polygon
         fill="none"
         stroke="#000000"
         points="60,-84 60,-104 96,-104 96,-84 60,-84"
         id="polygon24" />
      <polygon
         fill="none"
         stroke="#000000"
         points="8,-64 8,-84 60,-84 60,-64 8,-64"
         id="polygon26" />
      <text
         text-anchor="start"
         x="25.4482"
         y="-69.8"
         font-family="Times,serif"
         font-size="14.00"
         fill="#000000"
         id="text28">len</text>
      <polygon
         fill="none"
         stroke="#000000"
         points="60,-64 60,-84 96,-84 96,-64 60,-64"
         id="polygon30" />
      <text
         text-anchor="start"
         x="74.5"
         y="-69.800003"
         font-family="Times, serif"
         font-size="14px"
         fill="#000000"
         id="text32">3</text>
      <polygon
         fill="none"
         stroke="#000000"
         points="8,-44 8,-64 60,-64 60,-44 8,-44"
         id="polygon34" />
      <text
         text-anchor="start"
         x="10.6826"
         y="-49.8"
         font-family="Times,serif"
         font-size="14.00"
         fill="#000000"
         id="text36">capacity</text>
      <polygon
         fill="none"
         stroke="#000000"
         points="60,-44 60,-64 96,-64 96,-44 60,-44"
         id="polygon38" />
      <text
         text-anchor="start"
         x="74.5"
         y="-49.799999"
         font-family="Times, serif"
         font-size="14px"
         fill="#000000"
         id="text40">4</text>
    </g>
    <!-- table1 -->
    <g
       id="node2"
       class="node">
      <title
         id="title43">table1</title>
      <polygon
         fill="none"
         stroke="#000000"
         points="148.5,-104 148.5,-124 185.5,-124 185.5,-104 148.5,-104"
         id="polygon45" />
      <text
         text-anchor="start"
         x="151.4482"
         y="-109.8"
         font-family="Times,serif"
         font-size="14.00"
         fill="#000000"
         id="text47"><tspan
           style="font-style:italic"
           id="tspan137611">index</tspan></text>
      <polygon
         fill="none"
         stroke="#000000"
         points="185.5,-104 185.5,-124 221.5,-124 221.5,-104 185.5,-104"
         id="polygon49" />
      <text
         text-anchor="start"
         x="188.3413"
         y="-109.8"
         font-family="Times,serif"
         font-size="14.00"
         fill="#000000"
         id="text51">value</text>
      <polygon
         fill="none"
         stroke="#000000"
         points="148.5,-84 148.5,-104 185.5,-104 185.5,-84 148.5,-84"
         id="polygon53" />
      <text
         text-anchor="start"
         x="163.5"
         y="-89.8"
         font-family="Times,serif"
         font-size="14.00"
         fill="#000000"
         id="text55"><tspan
           style="font-style:italic"
           id="tspan138907">0</tspan></text>
      <polygon
         fill="none"
         stroke="#000000"
         points="185.5,-84 185.5,-104 221.5,-104 221.5,-84 185.5,-84"
         id="polygon57" />
      <text
         text-anchor="start"
         x="198.08002"
         y="-89.800003"
         font-family="Times, serif"
         font-size="14px"
         fill="#000000"
         id="text59">22</text>
      <polygon
         fill="none"
         stroke="#000000"
         points="148.5,-64 148.5,-84 185.5,-84 185.5,-64 148.5,-64"
         id="polygon61" />
      <text
         text-anchor="start"
         x="163.5"
         y="-69.8"
         font-family="Times,serif"
         font-size="14.00"
         fill="#000000"
         id="text63"><tspan
           style="font-style:italic"
           id="tspan140099">1</tspan></text>
      <polygon
         fill="none"
         stroke="#000000"
         points="185.5,-64 185.5,-84 221.5,-84 221.5,-64 185.5,-64"
         id="polygon65" />
      <text
         text-anchor="start"
         x="197.99312"
         y="-69.800003"
         font-family="Times, serif"
         font-size="14px"
         fill="#000000"
         id="text67">44</text>
      <polygon
         fill="none"
         stroke="#000000"
         points="148.5,-44 148.5,-64 185.5,-64 185.5,-44 148.5,-44"
         id="polygon69" />
      <text
         text-anchor="start"
         x="163.5"
         y="-49.8"
         font-family="Times,serif"
         font-size="14.00"
         fill="#000000"
         id="text71"><tspan
           style="font-style:italic"
           id="tspan140885">2</tspan></text>
      <polygon
         fill="none"
         stroke="#000000"
         points="185.5,-44 185.5,-64 221.5,-64 221.5,-44 185.5,-44"
         id="polygon73" />
      <text
         text-anchor="start"
         x="197.71524"
         y="-49.799999"
         font-family="Times, serif"
         font-size="14px"
         fill="#000000"
         id="text75">66</text>
      <polygon
         fill="none"
         stroke="#000000"
         points="148.5,-24 148.5,-44 185.5,-44 185.5,-24 148.5,-24"
         id="polygon77" />
      <text
         text-anchor="start"
         x="163.5"
         y="-29.8"
         font-family="Times,serif"
         font-size="14.00"
         fill="#000000"
         id="text79"><tspan
           style="font-style:italic"
           id="tspan141809">3</tspan></text>
      <polygon
         fill="none"
         stroke="#000000"
         points="185.5,-24 185.5,-44 221.5,-44 221.5,-24 185.5,-24"
         id="polygon81" />
      <text
         text-anchor="start"
         x="201.55521"
         y="-29.799999"
         font-family="Times, serif"
         font-size="14px"
         fill="#000000"
         id="text83">?</text>
    </g>
    <!-- table0&#45;&gt;table1 -->
    <g
       id="edge1"
       class="edge">
      <title
         id="title94">table0:c-&gt;table1:pointee</title>
      <path
         fill="none"
         stroke="#000000"
         d="M78,-94C78,-94 109.3406,-94 138.3797,-94"
         id="path96" />
      <polygon
         fill="#000000"
         stroke="#000000"
         points="138.5,-97.5001 148.5,-94 138.5,-90.5001 138.5,-97.5001"
         id="polygon98" />
    </g>
  </g>
</svg>
