<?xml version="1.0" encoding="UTF-8" standalone="no"?>
<!-- Generated by graphviz version 2.40.1 (20161225.0304)
 -->

<!-- Title: %3 Pages: 1 -->

<svg
   viewBox="0.00 0.00 1000.00 1300.00"
   version="1.1"
   id="svg1325"
   sodipodi:docname="trpl04-03.svg"
   inkscape:version="1.1.2 (0a00cf5339, 2022-02-04)"
   xmlns:inkscape="http://www.inkscape.org/namespaces/inkscape"
   xmlns:sodipodi="http://sodipodi.sourceforge.net/DTD/sodipodi-0.dtd"
   xmlns="http://www.w3.org/2000/svg"
   xmlns:svg="http://www.w3.org/2000/svg">
  <defs
     id="defs1329" />
  <sodipodi:namedview
     id="namedview1327"
     pagecolor="#ffffff"
     bordercolor="#666666"
     borderopacity="1.0"
     inkscape:pageshadow="2"
     inkscape:pageopacity="0.0"
     inkscape:pagecheckerboard="0"
     showgrid="false"
     inkscape:zoom="0.66461538"
     inkscape:cx="560.47454"
     inkscape:cy="580.03472"
     inkscape:window-width="1920"
     inkscape:window-height="1016"
     inkscape:window-x="0"
     inkscape:window-y="27"
     inkscape:window-maximized="1"
     inkscape:current-layer="graph0" />
  <g
     id="graph0"
     class="graph"
     transform="scale(4.1667 4.1667) rotate(0) translate(4 298)">
    <title
       id="title1130">%3</title>
    <polygon
       fill="#ffffff"
       stroke="transparent"
       points="-4,4 -4,-298 233,-298 233,4 -4,4"
       id="polygon1132" />
    <!-- table0 -->
    <g
       id="node1"
       class="node">
      <title
         id="title1134">table0</title>
      <polyline
         fill="none"
         stroke="#000000"
         points="8,-124 96,-124 "
         id="polyline1136" />
      <text
         text-anchor="start"
         x="45.775902"
         y="-129.8"
         font-family="Times, serif"
         font-size="14px"
         fill="#000000"
         id="text1138">v2</text>
      <polygon
         fill="none"
         stroke="#000000"
         points="8,-104 8,-124 60,-124 60,-104 8,-104"
         id="polygon1140" />
      <text
         text-anchor="start"
         x="18.8413"
         y="-109.8"
         font-family="Times,serif"
         font-size="14.00"
         fill="#000000"
         id="text1142">name</text>
      <polygon
         fill="none"
         stroke="#000000"
         points="60,-104 60,-124 96,-124 96,-104 60,-104"
         id="polygon1144" />
      <text
         text-anchor="start"
         x="62.8413"
         y="-109.8"
         font-family="Times,serif"
         font-size="14.00"
         fill="#000000"
         id="text1146">value</text>
      <polygon
         fill="none"
         stroke="#000000"
         points="8,-84 8,-104 60,-104 60,-84 8,-84"
         id="polygon1148" />
      <text
         text-anchor="start"
         x="26.2241"
         y="-89.8"
         font-family="Times,serif"
         font-size="14.00"
         fill="#000000"
         id="text1150">ptr</text>
      <polygon
         fill="none"
         stroke="#000000"
         points="60,-84 60,-104 96,-104 96,-84 60,-84"
         id="polygon1152" />
      <polygon
         fill="none"
         stroke="#000000"
         points="8,-64 8,-84 60,-84 60,-64 8,-64"
         id="polygon1154" />
      <text
         text-anchor="start"
         x="25.4482"
         y="-69.8"
         font-family="Times,serif"
         font-size="14.00"
         fill="#000000"
         id="text1156">len</text>
      <polygon
         fill="none"
         stroke="#000000"
         points="60,-64 60,-84 96,-84 96,-64 60,-64"
         id="polygon1158" />
      <text
         text-anchor="start"
         x="74.5"
         y="-69.800003"
         font-family="Times, serif"
         font-size="14px"
         fill="#000000"
         id="text1160">3</text>
      <polygon
         fill="none"
         stroke="#000000"
         points="8,-44 8,-64 60,-64 60,-44 8,-44"
         id="polygon1162" />
      <text
         text-anchor="start"
         x="10.6826"
         y="-49.8"
         font-family="Times,serif"
         font-size="14.00"
         fill="#000000"
         id="text1164">capacity</text>
      <polygon
         fill="none"
         stroke="#000000"
         points="60,-44 60,-64 96,-64 96,-44 60,-44"
         id="polygon1166" />
      <text
         text-anchor="start"
         x="74.5"
         y="-49.799999"
         font-family="Times, serif"
         font-size="14px"
         fill="#000000"
         id="text1168">4</text>
    </g>
    <!-- table1 -->
    <g
       id="node2"
       class="node">
      <title
         id="title1171">table1</title>
      <polygon
         fill="none"
         stroke="#000000"
         points="148.5,-104 148.5,-124 185.5,-124 185.5,-104 148.5,-104"
         id="polygon1173" />
      <text
         text-anchor="start"
         x="151.4482"
         y="-109.8"
         font-family="Times,serif"
         font-size="14.00"
         fill="#000000"
         id="text1175"><tspan
           style="font-style:italic"
           id="tspan93294">index</tspan></text>
      <polygon
         fill="none"
         stroke="#000000"
         points="185.5,-104 185.5,-124 221.5,-124 221.5,-104 185.5,-104"
         id="polygon1177" />
      <text
         text-anchor="start"
         x="188.3413"
         y="-109.8"
         font-family="Times,serif"
         font-size="14.00"
         fill="#000000"
         id="text1179">value</text>
      <polygon
         fill="none"
         stroke="#000000"
         points="148.5,-84 148.5,-104 185.5,-104 185.5,-84 148.5,-84"
         id="polygon1181" />
      <text
         text-anchor="start"
         x="163.5"
         y="-89.8"
         font-family="Times,serif"
         font-size="14.00"
         fill="#000000"
         id="text1183"><tspan
           style="font-style:italic"
           id="tspan94746">0</tspan></text>
      <polygon
         fill="none"
         stroke="#000000"
         points="185.5,-84 185.5,-104 221.5,-104 221.5,-84 185.5,-84"
         id="polygon1185" />
      <text
         text-anchor="start"
         x="198.08002"
         y="-89.800003"
         font-family="Times, serif"
         font-size="14px"
         fill="#000000"
         id="text1187">22</text>
      <polygon
         fill="none"
         stroke="#000000"
         points="148.5,-64 148.5,-84 185.5,-84 185.5,-64 148.5,-64"
         id="polygon1189" />
      <text
         text-anchor="start"
         x="163.5"
         y="-69.8"
         font-family="Times,serif"
         font-size="14.00"
         fill="#000000"
         id="text1191"><tspan
           style="font-style:italic"
           id="tspan95390">1</tspan></text>
      <polygon
         fill="none"
         stroke="#000000"
         points="185.5,-64 185.5,-84 221.5,-84 221.5,-64 185.5,-64"
         id="polygon1193" />
      <text
         text-anchor="start"
         x="197.51312"
         y="-69.800003"
         font-family="Times, serif"
         font-size="14px"
         fill="#000000"
         id="text1195">44</text>
      <polygon
         fill="none"
         stroke="#000000"
         points="148.5,-44 148.5,-64 185.5,-64 185.5,-44 148.5,-44"
         id="polygon1197" />
      <text
         text-anchor="start"
         x="163.5"
         y="-49.8"
         font-family="Times,serif"
         font-size="14.00"
         fill="#000000"
         id="text1199"><tspan
           style="font-style:italic"
           id="tspan96284">2</tspan></text>
      <polygon
         fill="none"
         stroke="#000000"
         points="185.5,-44 185.5,-64 221.5,-64 221.5,-44 185.5,-44"
         id="polygon1201" />
      <text
         text-anchor="start"
         x="197.71524"
         y="-49.799999"
         font-family="Times, serif"
         font-size="14px"
         fill="#000000"
         id="text1203">66</text>
      <polygon
         fill="none"
         stroke="#000000"
         points="148.5,-24 148.5,-44 185.5,-44 185.5,-24 148.5,-24"
         id="polygon1205" />
      <text
         text-anchor="start"
         x="163.5"
         y="-29.8"
         font-family="Times,serif"
         font-size="14.00"
         fill="#000000"
         id="text1207"><tspan
           style="font-style:italic"
           id="tspan96988">3</tspan></text>
      <polygon
         fill="none"
         stroke="#000000"
         points="185.5,-24 185.5,-44 221.5,-44 221.5,-24 185.5,-24"
         id="polygon1209" />
      <text
         text-anchor="start"
         x="201.55521"
         y="-29.799999"
         font-family="Times, serif"
         font-size="14px"
         fill="#000000"
         id="text1211">?</text>
    </g>
    <!-- table0&#45;&gt;table1 -->
    <g
       id="edge1"
       class="edge">
      <title
         id="title1222">table0:c-&gt;table1:pointee</title>
      <path
         fill="none"
         stroke="#000000"
         d="M78,-94C78,-94 109.3406,-94 138.3797,-94"
         id="path1224" />
      <polygon
         fill="#000000"
         stroke="#000000"
         points="138.5,-97.5001 148.5,-94 138.5,-90.5001 138.5,-97.5001"
         id="polygon1226" />
    </g>
    <!-- table3 -->
    <g
       id="node3"
       class="node">
      <title
         id="title1229">table3</title>
      <polyline
         fill="none"
         stroke="#000000"
         points="8,-270 96,-270 "
         id="polyline1231" />
      <text
         text-anchor="start"
         x="45.775902"
         y="-275.79999"
         font-family="Times, serif"
         font-size="14px"
         fill="#000000"
         id="text1233">v1</text>
      <polygon
         fill="none"
         stroke="#000000"
         points="8,-250 8,-270 60,-270 60,-250 8,-250"
         id="polygon1235" />
      <text
         text-anchor="start"
         x="18.8413"
         y="-255.8"
         font-family="Times,serif"
         font-size="14.00"
         fill="#000000"
         id="text1237">name</text>
      <polygon
         fill="none"
         stroke="#000000"
         points="60,-250 60,-270 96,-270 96,-250 60,-250"
         id="polygon1239" />
      <text
         text-anchor="start"
         x="62.8413"
         y="-255.8"
         font-family="Times,serif"
         font-size="14.00"
         fill="#000000"
         id="text1241">value</text>
      <polygon
         fill="none"
         stroke="#000000"
         points="8,-230 8,-250 60,-250 60,-230 8,-230"
         id="polygon1243" />
      <text
         text-anchor="start"
         x="26.2241"
         y="-235.8"
         font-family="Times,serif"
         font-size="14.00"
         fill="#000000"
         id="text1245">ptr</text>
      <polygon
         fill="none"
         stroke="#000000"
         points="60,-230 60,-250 96,-250 96,-230 60,-230"
         id="polygon1247" />
      <polygon
         fill="none"
         stroke="#000000"
         points="8,-210 8,-230 60,-230 60,-210 8,-210"
         id="polygon1249" />
      <text
         text-anchor="start"
         x="25.4482"
         y="-215.8"
         font-family="Times,serif"
         font-size="14.00"
         fill="#000000"
         id="text1251">len</text>
      <polygon
         fill="none"
         stroke="#000000"
         points="60,-210 60,-230 96,-230 96,-210 60,-210"
         id="polygon1253" />
      <text
         text-anchor="start"
         x="74.5"
         y="-215.8"
         font-family="Times, serif"
         font-size="14px"
         fill="#000000"
         id="text1255">3</text>
      <polygon
         fill="none"
         stroke="#000000"
         points="8,-190 8,-210 60,-210 60,-190 8,-190"
         id="polygon1257" />
      <text
         text-anchor="start"
         x="10.6826"
         y="-195.8"
         font-family="Times,serif"
         font-size="14.00"
         fill="#000000"
         id="text1259">capacity</text>
      <polygon
         fill="none"
         stroke="#000000"
         points="60,-190 60,-210 96,-210 96,-190 60,-190"
         id="polygon1261" />
      <text
         text-anchor="start"
         x="74.5"
         y="-195.8"
         font-family="Times, serif"
         font-size="14px"
         fill="#000000"
         id="text1263">4</text>
    </g>
    <!-- table4 -->
    <g
       id="node4"
       class="node">
      <title
         id="title1266">table4</title>
      <polygon
         fill="none"
         stroke="#000000"
         points="148.5,-250 148.5,-270 185.5,-270 185.5,-250 148.5,-250"
         id="polygon1268" />
      <text
         text-anchor="start"
         x="151.4482"
         y="-255.8"
         font-family="Times,serif"
         font-size="14.00"
         fill="#000000"
         id="text1270"><tspan
           style="font-style:italic"
           id="tspan88258">index</tspan></text>
      <polygon
         fill="none"
         stroke="#000000"
         points="185.5,-250 185.5,-270 221.5,-270 221.5,-250 185.5,-250"
         id="polygon1272" />
      <text
         text-anchor="start"
         x="188.3413"
         y="-255.8"
         font-family="Times,serif"
         font-size="14.00"
         fill="#000000"
         id="text1274">value</text>
      <polygon
         fill="none"
         stroke="#000000"
         points="148.5,-230 148.5,-250 185.5,-250 185.5,-230 148.5,-230"
         id="polygon1276" />
      <text
         text-anchor="start"
         x="163.5"
         y="-235.8"
         font-family="Times,serif"
         font-size="14.00"
         fill="#000000"
         id="text1278"><tspan
           style="font-style:italic"
           id="tspan89102">0</tspan></text>
      <polygon
         fill="none"
         stroke="#000000"
         points="185.5,-230 185.5,-250 221.5,-250 221.5,-230 185.5,-230"
         id="polygon1280" />
      <text
         text-anchor="start"
         x="198.08002"
         y="-235.8"
         font-family="Times, serif"
         font-size="14px"
         fill="#000000"
         id="text1282">22</text>
      <polygon
         fill="none"
         stroke="#000000"
         points="148.5,-210 148.5,-230 185.5,-230 185.5,-210 148.5,-210"
         id="polygon1284" />
      <text
         text-anchor="start"
         x="163.5"
         y="-215.8"
         font-family="Times,serif"
         font-size="14.00"
         fill="#000000"
         id="text1286"><tspan
           style="font-style:italic"
           id="tspan90138">1</tspan></text>
      <polygon
         fill="none"
         stroke="#000000"
         points="185.5,-210 185.5,-230 221.5,-230 221.5,-210 185.5,-210"
         id="polygon1288" />
      <text
         text-anchor="start"
         x="198.47311"
         y="-215.8"
         font-family="Times, serif"
         font-size="14px"
         fill="#000000"
         id="text1290">44</text>
      <polygon
         fill="none"
         stroke="#000000"
         points="148.5,-190 148.5,-210 185.5,-210 185.5,-190 148.5,-190"
         id="polygon1292" />
      <text
         text-anchor="start"
         x="163.5"
         y="-195.8"
         font-family="Times,serif"
         font-size="14.00"
         fill="#000000"
         id="text1294"><tspan
           style="font-style:italic"
           id="tspan91192">2</tspan></text>
      <polygon
         fill="none"
         stroke="#000000"
         points="185.5,-190 185.5,-210 221.5,-210 221.5,-190 185.5,-190"
         id="polygon1296" />
      <text
         text-anchor="start"
         x="197.71524"
         y="-195.8"
         font-family="Times, serif"
         font-size="14px"
         fill="#000000"
         id="text1298">66</text>
      <polygon
         fill="none"
         stroke="#000000"
         points="148.5,-170 148.5,-190 185.5,-190 185.5,-170 148.5,-170"
         id="polygon1300" />
      <text
         text-anchor="start"
         x="163.5"
         y="-175.8"
         font-family="Times,serif"
         font-size="14.00"
         fill="#000000"
         id="text1302"><tspan
           style="font-style:italic"
           id="tspan92144">3</tspan></text>
      <polygon
         fill="none"
         stroke="#000000"
         points="185.5,-170 185.5,-190 221.5,-190 221.5,-170 185.5,-170"
         id="polygon1304" />
      <text
         text-anchor="start"
         x="201.55521"
         y="-175.8"
         font-family="Times, serif"
         font-size="14px"
         fill="#000000"
         id="text1306">?</text>
    </g>
    <!-- table3&#45;&gt;table4 -->
    <g
       id="edge2"
       class="edge">
      <title
         id="title1317">table3:c-&gt;table4:pointee</title>
      <path
         fill="none"
         stroke="#000000"
         d="M78,-240C78,-240 109.3406,-240 138.3797,-240"
         id="path1319" />
      <polygon
         fill="#000000"
         stroke="#000000"
         points="138.5,-243.5001 148.5,-240 138.5,-236.5001 138.5,-243.5001"
         id="polygon1321" />
    </g>
  </g>
</svg>
