<?xml version="1.0" encoding="UTF-8" standalone="no"?>
<!-- Generated by graphviz version 2.40.1 (20161225.0304)
 -->

<!-- Title: %3 Pages: 1 -->

<svg
   viewBox="0.00 0.00 1500.00 650.00"
   version="1.1"
   id="svg1725"
   sodipodi:docname="trpl04-05.svg"
   inkscape:version="1.1.2 (0a00cf5339, 2022-02-04)"
   xmlns:inkscape="http://www.inkscape.org/namespaces/inkscape"
   xmlns:sodipodi="http://sodipodi.sourceforge.net/DTD/sodipodi-0.dtd"
   xmlns="http://www.w3.org/2000/svg"
   xmlns:svg="http://www.w3.org/2000/svg">
  <defs
     id="defs1729" />
  <sodipodi:namedview
     id="namedview1727"
     pagecolor="#ffffff"
     bordercolor="#666666"
     borderopacity="1.0"
     inkscape:pageshadow="2"
     inkscape:pageopacity="0.0"
     inkscape:pagecheckerboard="0"
     showgrid="false"
     inkscape:zoom="0.56510297"
     inkscape:cx="825.51327"
     inkscape:cy="349.49383"
     inkscape:window-width="1920"
     inkscape:window-height="1016"
     inkscape:window-x="0"
     inkscape:window-y="27"
     inkscape:window-maximized="1"
     inkscape:current-layer="graph0" />
  <g
     id="graph0"
     class="graph"
     transform="scale(4.1667 4.1667) rotate(0) translate(4 152)">
    <title
       id="title1597">%3</title>
    <polygon
       fill="#ffffff"
       stroke="transparent"
       points="-4,4 -4,-152 357,-152 357,4 -4,4"
       id="polygon1599" />
    <!-- table0 -->
    <g
       id="node1"
       class="node">
      <title
         id="title1601">table0</title>
      <polyline
         fill="none"
         stroke="#000000"
         points="8,-124 80,-124 "
         id="polyline1603" />
      <text
         text-anchor="start"
         x="37.435936"
         y="-129.8"
         font-family="Times, serif"
         font-size="14px"
         fill="#000000"
         id="text1605">v2</text>
      <polygon
         fill="none"
         stroke="#000000"
         points="8,-104 8,-124 44,-124 44,-104 8,-104"
         id="polygon1607" />
      <text
         text-anchor="start"
         x="10.8413"
         y="-109.8"
         font-family="Times,serif"
         font-size="14.00"
         fill="#000000"
         id="text1609">name</text>
      <polygon
         fill="none"
         stroke="#000000"
         points="44,-104 44,-124 80,-124 80,-104 44,-104"
         id="polygon1611" />
      <text
         text-anchor="start"
         x="46.8413"
         y="-109.8"
         font-family="Times,serif"
         font-size="14.00"
         fill="#000000"
         id="text1613">value</text>
      <polygon
         fill="none"
         stroke="#000000"
         points="8,-84 8,-104 44,-104 44,-84 8,-84"
         id="polygon1615" />
      <text
         text-anchor="start"
         x="18.2241"
         y="-89.8"
         font-family="Times,serif"
         font-size="14.00"
         fill="#000000"
         id="text1617">ptr</text>
      <polygon
         fill="none"
         stroke="#000000"
         points="44,-84 44,-104 80,-104 80,-84 44,-84"
         id="polygon1619" />
    </g>
    <!-- table1 -->
    <g
       id="node2"
       class="node">
      <title
         id="title1622">table1</title>
      <polyline
         fill="none"
         stroke="#000000"
         points="132,-124 220,-124 "
         id="polyline1624" />
      <text
         text-anchor="start"
         x="169.77589"
         y="-129.8"
         font-family="Times, serif"
         font-size="14px"
         fill="#000000"
         id="text1626">v1</text>
      <polygon
         fill="none"
         stroke="#000000"
         points="132,-104 132,-124 184,-124 184,-104 132,-104"
         id="polygon1628" />
      <text
         text-anchor="start"
         x="142.8413"
         y="-109.8"
         font-family="Times,serif"
         font-size="14.00"
         fill="#000000"
         id="text1630">name</text>
      <polygon
         fill="none"
         stroke="#000000"
         points="184,-104 184,-124 220,-124 220,-104 184,-104"
         id="polygon1632" />
      <text
         text-anchor="start"
         x="186.8413"
         y="-109.8"
         font-family="Times,serif"
         font-size="14.00"
         fill="#000000"
         id="text1634">value</text>
      <polygon
         fill="none"
         stroke="#000000"
         points="132,-84 132,-104 184,-104 184,-84 132,-84"
         id="polygon1636" />
      <text
         text-anchor="start"
         x="150.2241"
         y="-89.8"
         font-family="Times,serif"
         font-size="14.00"
         fill="#000000"
         id="text1638">ptr</text>
      <polygon
         fill="none"
         stroke="#000000"
         points="184,-84 184,-104 220,-104 220,-84 184,-84"
         id="polygon1640" />
      <polygon
         fill="none"
         stroke="#000000"
         points="132,-64 132,-84 184,-84 184,-64 132,-64"
         id="polygon1642" />
      <text
         text-anchor="start"
         x="149.4482"
         y="-69.8"
         font-family="Times,serif"
         font-size="14.00"
         fill="#000000"
         id="text1644">len</text>
      <polygon
         fill="none"
         stroke="#000000"
         points="184,-64 184,-84 220,-84 220,-64 184,-64"
         id="polygon1646" />
      <text
         text-anchor="start"
         x="198.5"
         y="-69.800003"
         font-family="Times, serif"
         font-size="14px"
         fill="#000000"
         id="text1648">3</text>
      <polygon
         fill="none"
         stroke="#000000"
         points="132,-44 132,-64 184,-64 184,-44 132,-44"
         id="polygon1650" />
      <text
         text-anchor="start"
         x="134.6826"
         y="-49.8"
         font-family="Times,serif"
         font-size="14.00"
         fill="#000000"
         id="text1652">capacity</text>
      <polygon
         fill="none"
         stroke="#000000"
         points="184,-44 184,-64 220,-64 220,-44 184,-44"
         id="polygon1654" />
      <text
         text-anchor="start"
         x="198.5"
         y="-49.799999"
         font-family="Times, serif"
         font-size="14px"
         fill="#000000"
         id="text1656">4</text>
    </g>
    <!-- table0&#45;&gt;table1 -->
    <g
       id="edge2"
       class="edge">
      <title
         id="title1659">table0:c-&gt;table1:borrowee</title>
      <path
         fill="none"
         stroke="#000000"
         d="M62,-94C62,-94 93.1184,-94 121.9514,-94"
         stroke-dasharray="2,3"
         id="path1661" />
      <polygon
         fill="#000000"
         stroke="#000000"
         points="122,-97.5001 132,-94 122,-90.5001 122,-97.5001"
         id="polygon1663" />
    </g>
    <!-- table2 -->
    <g
       id="node3"
       class="node">
      <title
         id="title1666">table2</title>
      <polygon
         fill="none"
         stroke="#000000"
         points="272.5,-104 272.5,-124 309.5,-124 309.5,-104 272.5,-104"
         id="polygon1668" />
      <text
         text-anchor="start"
         x="275.4482"
         y="-109.8"
         font-family="Times,serif"
         font-size="14.00"
         fill="#000000"
         id="text1670"><tspan
           style="font-style:italic"
           id="tspan29371">index</tspan></text>
      <polygon
         fill="none"
         stroke="#000000"
         points="309.5,-104 309.5,-124 345.5,-124 345.5,-104 309.5,-104"
         id="polygon1672" />
      <text
         text-anchor="start"
         x="312.3413"
         y="-109.8"
         font-family="Times,serif"
         font-size="14.00"
         fill="#000000"
         id="text1674">value</text>
      <polygon
         fill="none"
         stroke="#000000"
         points="272.5,-84 272.5,-104 309.5,-104 309.5,-84 272.5,-84"
         id="polygon1676" />
      <text
         text-anchor="start"
         x="287.5"
         y="-89.8"
         font-family="Times,serif"
         font-size="14.00"
         fill="#000000"
         id="text1678"><tspan
           style="font-style:italic"
           id="tspan30183">0</tspan></text>
      <polygon
         fill="none"
         stroke="#000000"
         points="309.5,-84 309.5,-104 345.5,-104 345.5,-84 309.5,-84"
         id="polygon1680" />
      <text
         text-anchor="start"
         x="322.07996"
         y="-89.800003"
         font-family="Times, serif"
         font-size="14px"
         fill="#000000"
         id="text1682">22</text>
      <polygon
         fill="none"
         stroke="#000000"
         points="272.5,-64 272.5,-84 309.5,-84 309.5,-64 272.5,-64"
         id="polygon1684" />
      <text
         text-anchor="start"
         x="287.5"
         y="-69.8"
         font-family="Times,serif"
         font-size="14.00"
         fill="#000000"
         id="text1686"><tspan
           style="font-style:italic"
           id="tspan31133">1</tspan></text>
      <polygon
         fill="none"
         stroke="#000000"
         points="309.5,-64 309.5,-84 345.5,-84 345.5,-64 309.5,-64"
         id="polygon1688" />
      <text
         text-anchor="start"
         x="321.99304"
         y="-69.800003"
         font-family="Times, serif"
         font-size="14px"
         fill="#000000"
         id="text1690">33</text>
      <polygon
         fill="none"
         stroke="#000000"
         points="272.5,-44 272.5,-64 309.5,-64 309.5,-44 272.5,-44"
         id="polygon1692" />
      <text
         text-anchor="start"
         x="287.5"
         y="-49.8"
         font-family="Times,serif"
         font-size="14.00"
         fill="#000000"
         id="text1694"><tspan
           style="font-style:italic"
           id="tspan31995">2</tspan></text>
      <polygon
         fill="none"
         stroke="#000000"
         points="309.5,-44 309.5,-64 345.5,-64 345.5,-44 309.5,-44"
         id="polygon1696" />
      <text
         text-anchor="start"
         x="322.19513"
         y="-49.799999"
         font-family="Times, serif"
         font-size="14px"
         fill="#000000"
         id="text1698">44</text>
      <polygon
         fill="none"
         stroke="#000000"
         points="272.5,-24 272.5,-44 309.5,-44 309.5,-24 272.5,-24"
         id="polygon1700" />
      <text
         text-anchor="start"
         x="287.5"
         y="-29.8"
         font-family="Times,serif"
         font-size="14.00"
         fill="#000000"
         id="text1702"><tspan
           style="font-style:italic"
           id="tspan33431">3</tspan></text>
      <polygon
         fill="none"
         stroke="#000000"
         points="309.5,-24 309.5,-44 345.5,-44 345.5,-24 309.5,-24"
         id="polygon1704" />
      <text
         text-anchor="start"
         x="325.55521"
         y="-29.799999"
         font-family="Times, serif"
         font-size="14px"
         fill="#000000"
         id="text1706">?</text>
    </g>
    <!-- table1&#45;&gt;table2 -->
    <g
       id="edge1"
       class="edge">
      <title
         id="title1717">table1:c-&gt;table2:pointee</title>
      <path
         fill="none"
         stroke="#000000"
         d="M202,-94C202,-94 233.3406,-94 262.3797,-94"
         id="path1719" />
      <polygon
         fill="#000000"
         stroke="#000000"
         points="262.5,-97.5001 272.5,-94 262.5,-90.5001 262.5,-97.5001"
         id="polygon1721" />
    </g>
  </g>
</svg>
