<?xml version="1.0" encoding="UTF-8" standalone="no"?>
<!-- Generated by graphviz version 2.40.1 (20161225.0304)
 -->

<!-- Title: %3 Pages: 1 -->

<svg
   viewBox="0.00 0.00 1000.00 1000.00"
   version="1.1"
   id="svg1067"
   sodipodi:docname="trpl04-02.svg"
   inkscape:version="1.1.2 (0a00cf5339, 2022-02-04)"
   xmlns:inkscape="http://www.inkscape.org/namespaces/inkscape"
   xmlns:sodipodi="http://sodipodi.sourceforge.net/DTD/sodipodi-0.dtd"
   xmlns="http://www.w3.org/2000/svg"
   xmlns:svg="http://www.w3.org/2000/svg">
  <defs
     id="defs1071" />
  <sodipodi:namedview
     id="namedview1069"
     pagecolor="#ffffff"
     bordercolor="#666666"
     borderopacity="1.0"
     inkscape:pageshadow="2"
     inkscape:pageopacity="0.0"
     inkscape:pagecheckerboard="0"
     showgrid="false"
     inkscape:zoom="0.66352236"
     inkscape:cx="410.68699"
     inkscape:cy="519.19878"
     inkscape:window-width="1920"
     inkscape:window-height="1016"
     inkscape:window-x="0"
     inkscape:window-y="27"
     inkscape:window-maximized="1"
     inkscape:current-layer="graph0" />
  <g
     id="graph0"
     class="graph"
     transform="scale(4.1667 4.1667) rotate(0) translate(4 238)">
    <title
       id="title923">%3</title>
    <polygon
       fill="#ffffff"
       stroke="transparent"
       points="-4,4 -4,-238 233,-238 233,4 -4,4"
       id="polygon925" />
    <!-- table0 -->
    <g
       id="node1"
       class="node">
      <title
         id="title927">table0</title>
      <polyline
         fill="none"
         stroke="#000000"
         points="8,-210 96,-210 "
         id="polyline929" />
      <text
         text-anchor="start"
         x="45.775902"
         y="-215.8"
         font-family="Times, serif"
         font-size="14px"
         fill="#000000"
         id="text931">v1</text>
      <polygon
         fill="none"
         stroke="#000000"
         points="8,-190 8,-210 60,-210 60,-190 8,-190"
         id="polygon933" />
      <text
         text-anchor="start"
         x="18.8413"
         y="-195.8"
         font-family="Times,serif"
         font-size="14.00"
         fill="#000000"
         id="text935">name</text>
      <polygon
         fill="none"
         stroke="#000000"
         points="60,-190 60,-210 96,-210 96,-190 60,-190"
         id="polygon937" />
      <text
         text-anchor="start"
         x="62.8413"
         y="-195.8"
         font-family="Times,serif"
         font-size="14.00"
         fill="#000000"
         id="text939">value</text>
      <polygon
         fill="none"
         stroke="#000000"
         points="8,-170 8,-190 60,-190 60,-170 8,-170"
         id="polygon941" />
      <text
         text-anchor="start"
         x="26.2241"
         y="-175.8"
         font-family="Times,serif"
         font-size="14.00"
         fill="#000000"
         id="text943">ptr</text>
      <polygon
         fill="none"
         stroke="#000000"
         points="60,-170 60,-190 96,-190 96,-170 60,-170"
         id="polygon945" />
      <polygon
         fill="none"
         stroke="#000000"
         points="8,-150 8,-170 60,-170 60,-150 8,-150"
         id="polygon947" />
      <text
         text-anchor="start"
         x="25.4482"
         y="-155.8"
         font-family="Times,serif"
         font-size="14.00"
         fill="#000000"
         id="text949">len</text>
      <polygon
         fill="none"
         stroke="#000000"
         points="60,-150 60,-170 96,-170 96,-150 60,-150"
         id="polygon951" />
      <text
         text-anchor="start"
         x="74.5"
         y="-155.8"
         font-family="Times, serif"
         font-size="14px"
         fill="#000000"
         id="text953">3</text>
      <polygon
         fill="none"
         stroke="#000000"
         points="8,-130 8,-150 60,-150 60,-130 8,-130"
         id="polygon955" />
      <text
         text-anchor="start"
         x="10.6826"
         y="-135.8"
         font-family="Times,serif"
         font-size="14.00"
         fill="#000000"
         id="text957">capacity</text>
      <polygon
         fill="none"
         stroke="#000000"
         points="60,-130 60,-150 96,-150 96,-130 60,-130"
         id="polygon959" />
      <text
         text-anchor="start"
         x="74.5"
         y="-135.8"
         font-family="Times, serif"
         font-size="14px"
         fill="#000000"
         id="text961">4</text>
    </g>
    <!-- table1 -->
    <g
       id="node3"
       class="node">
      <title
         id="title964">table1</title>
      <polygon
         fill="none"
         stroke="#000000"
         points="148.5,-127 148.5,-147 185.5,-147 185.5,-127 148.5,-127"
         id="polygon966" />
      <text
         text-anchor="start"
         x="151.4482"
         y="-132.8"
         font-family="Times,serif"
         font-size="14.00"
         fill="#000000"
         id="text968"><tspan
           style="font-style:italic"
           id="tspan119338">index</tspan></text>
      <polygon
         fill="none"
         stroke="#000000"
         points="185.5,-127 185.5,-147 221.5,-147 221.5,-127 185.5,-127"
         id="polygon970" />
      <text
         text-anchor="start"
         x="188.3413"
         y="-132.8"
         font-family="Times,serif"
         font-size="14.00"
         fill="#000000"
         id="text972">value</text>
      <polygon
         fill="none"
         stroke="#000000"
         points="148.5,-107 148.5,-127 185.5,-127 185.5,-107 148.5,-107"
         id="polygon974" />
      <text
         text-anchor="start"
         x="163.5"
         y="-112.8"
         font-family="Times,serif"
         font-size="14.00"
         fill="#000000"
         id="text976"><tspan
           style="font-style:italic"
           id="tspan119966">0</tspan></text>
      <polygon
         fill="none"
         stroke="#000000"
         points="185.5,-107 185.5,-127 221.5,-127 221.5,-107 185.5,-107"
         id="polygon978" />
      <text
         text-anchor="start"
         x="198.08002"
         y="-112.8"
         font-family="Times, serif"
         font-size="14px"
         fill="#000000"
         id="text980">22</text>
      <polygon
         fill="none"
         stroke="#000000"
         points="148.5,-87 148.5,-107 185.5,-107 185.5,-87 148.5,-87"
         id="polygon982" />
      <text
         text-anchor="start"
         x="163.5"
         y="-92.8"
         font-family="Times,serif"
         font-size="14.00"
         fill="#000000"
         id="text984"><tspan
           style="font-style:italic"
           id="tspan120594">1</tspan></text>
      <polygon
         fill="none"
         stroke="#000000"
         points="185.5,-87 185.5,-107 221.5,-107 221.5,-87 185.5,-87"
         id="polygon986" />
      <text
         text-anchor="start"
         x="197.99312"
         y="-92.800003"
         font-family="Times, serif"
         font-size="14px"
         fill="#000000"
         id="text988">44</text>
      <polygon
         fill="none"
         stroke="#000000"
         points="148.5,-67 148.5,-87 185.5,-87 185.5,-67 148.5,-67"
         id="polygon990" />
      <text
         text-anchor="start"
         x="163.5"
         y="-72.8"
         font-family="Times,serif"
         font-size="14.00"
         fill="#000000"
         id="text992"><tspan
           style="font-style:italic"
           id="tspan121720">2</tspan></text>
      <polygon
         fill="none"
         stroke="#000000"
         points="185.5,-67 185.5,-87 221.5,-87 221.5,-67 185.5,-67"
         id="polygon994" />
      <text
         text-anchor="start"
         x="197.71524"
         y="-72.800003"
         font-family="Times, serif"
         font-size="14px"
         fill="#000000"
         id="text996">66</text>
      <polygon
         fill="none"
         stroke="#000000"
         points="148.5,-47 148.5,-67 185.5,-67 185.5,-47 148.5,-47"
         id="polygon998" />
      <text
         text-anchor="start"
         x="163.5"
         y="-52.8"
         font-family="Times,serif"
         font-size="14.00"
         fill="#000000"
         id="text1000"><tspan
           style="font-style:italic"
           id="tspan122660">3</tspan></text>
      <polygon
         fill="none"
         stroke="#000000"
         points="185.5,-47 185.5,-67 221.5,-67 221.5,-47 185.5,-47"
         id="polygon1002" />
      <text
         text-anchor="start"
         x="201.55521"
         y="-52.799999"
         font-family="Times, serif"
         font-size="14px"
         fill="#000000"
         id="text1004">?</text>
    </g>
    <!-- table0&#45;&gt;table1 -->
    <g
       id="edge1"
       class="edge">
      <title
         id="title1015">table0:c-&gt;table1:pointee</title>
      <path
         fill="none"
         stroke="#000000"
         d="M78,-180C78,-180 101.9982,-126.912 138.4405,-118.2023"
         id="path1017" />
      <polygon
         fill="#000000"
         stroke="#000000"
         points="138.986,-121.6621 148.5,-117 138.1553,-114.7115 138.986,-121.6621"
         id="polygon1019" />
    </g>
    <!-- table3 -->
    <g
       id="node2"
       class="node">
      <title
         id="title1022">table3</title>
      <polyline
         fill="none"
         stroke="#000000"
         points="8,-84 96,-84 "
         id="polyline1024" />
      <text
         text-anchor="start"
         x="45.775902"
         y="-89.800003"
         font-family="Times, serif"
         font-size="14px"
         fill="#000000"
         id="text1026">v2</text>
      <polygon
         fill="none"
         stroke="#000000"
         points="8,-64 8,-84 60,-84 60,-64 8,-64"
         id="polygon1028" />
      <text
         text-anchor="start"
         x="18.8413"
         y="-69.8"
         font-family="Times,serif"
         font-size="14.00"
         fill="#000000"
         id="text1030">name</text>
      <polygon
         fill="none"
         stroke="#000000"
         points="60,-64 60,-84 96,-84 96,-64 60,-64"
         id="polygon1032" />
      <text
         text-anchor="start"
         x="62.8413"
         y="-69.8"
         font-family="Times,serif"
         font-size="14.00"
         fill="#000000"
         id="text1034">value</text>
      <polygon
         fill="none"
         stroke="#000000"
         points="8,-44 8,-64 60,-64 60,-44 8,-44"
         id="polygon1036" />
      <text
         text-anchor="start"
         x="26.2241"
         y="-49.8"
         font-family="Times,serif"
         font-size="14.00"
         fill="#000000"
         id="text1038">ptr</text>
      <polygon
         fill="none"
         stroke="#000000"
         points="60,-44 60,-64 96,-64 96,-44 60,-44"
         id="polygon1040" />
      <polygon
         fill="none"
         stroke="#000000"
         points="8,-24 8,-44 60,-44 60,-24 8,-24"
         id="polygon1042" />
      <text
         text-anchor="start"
         x="25.4482"
         y="-29.8"
         font-family="Times,serif"
         font-size="14.00"
         fill="#000000"
         id="text1044">len</text>
      <polygon
         fill="none"
         stroke="#000000"
         points="60,-24 60,-44 96,-44 96,-24 60,-24"
         id="polygon1046" />
      <text
         text-anchor="start"
         x="74.5"
         y="-29.799999"
         font-family="Times, serif"
         font-size="14px"
         fill="#000000"
         id="text1048">3</text>
      <polygon
         fill="none"
         stroke="#000000"
         points="8,-4 8,-24 60,-24 60,-4 8,-4"
         id="polygon1050" />
      <text
         text-anchor="start"
         x="10.6826"
         y="-9.8"
         font-family="Times,serif"
         font-size="14.00"
         fill="#000000"
         id="text1052">capacity</text>
      <polygon
         fill="none"
         stroke="#000000"
         points="60,-4 60,-24 96,-24 96,-4 60,-4"
         id="polygon1054" />
      <text
         text-anchor="start"
         x="74.5"
         y="-9.8000002"
         font-family="Times, serif"
         font-size="14px"
         fill="#000000"
         id="text1056">4</text>
    </g>
    <!-- table3&#45;&gt;table1 -->
    <g
       id="edge2"
       class="edge">
      <title
         id="title1059">table3:c-&gt;table1:pointee</title>
      <path
         fill="none"
         stroke="#000000"
         d="M78,-54C78,-54 101.9982,-107.088 138.4405,-115.7977"
         id="path1061" />
      <polygon
         fill="#000000"
         stroke="#000000"
         points="138.1553,-119.2885 148.5,-117 138.986,-112.3379 138.1553,-119.2885"
         id="polygon1063" />
    </g>
  </g>
</svg>
